Coordinates
version=1
nRows=14
nColumns=63
inDegrees=yes

Units are S.I. units (second, meters, Newtons, ...)
If the header above contains a line with 'inDegrees', this indicates whether rotational values are in degrees (yes) or radians (no).

endheader
time	pelvis_tilt	pelvis_list	pelvis_rotation	pelvis_tx	pelvis_ty	pelvis_tz	hip_flexion_r	hip_adduction_r	hip_rotation_r	knee_angle_r	knee_angle_r_beta	ankle_angle_r	subtalar_angle_r	mtp_angle_r	hip_flexion_l	hip_adduction_l	hip_rotation_l	knee_angle_l	knee_angle_l_beta	ankle_angle_l	subtalar_angle_l	mtp_angle_l	L5_S1_Flex_Ext	L5_S1_Lat_Bending	L5_S1_axial_rotation	L4_L5_Flex_Ext	L4_L5_Lat_Bending	L4_L5_axial_rotation	L3_L4_Flex_Ext	L3_L4_Lat_Bending	L3_L4_axial_rotation	L2_L3_Flex_Ext	L2_L3_Lat_Bending	L2_L3_axial_rotation	L1_L2_Flex_Ext	L1_L2_Lat_Bending	L1_L2_axial_rotation	L1_T12_Flex_Ext	L1_T12_Lat_Bending	L1_T12_axial_rotation	Abs_r3	Abs_r2	Abs_r1	Abs_t1	Abs_t2	neck_flexion	neck_bending	neck_rotation	arm_flex_r	arm_add_r	arm_rot_r	elbow_flex_r	pro_sup_r	wrist_flex_r	wrist_dev_r	arm_flex_l	arm_add_l	arm_rot_l	elbow_flex_l	pro_sup_l	wrist_flex_l	wrist_dev_l
3.666667	-4.843713	2.764615	90.054171	0.248693	0.892381	0.700813	-5.409139	-1.804490	2.757917	5.706025	0.099589	29.261582	-3.891805	0.000000	-0.561480	1.631659	-1.426159	13.626340	0.237824	35.073362	2.886460	0.000000	0.028367	-0.589746	1.021444	0.052681	-0.784362	1.085284	0.046604	-1.433908	1.085284	0.032421	-1.433908	0.893764	0.026342	-1.202610	0.829923	0.016209	-0.913516	0.766083	0.202624	-6.671323	5.680965	0.000000	0.000000	21.573665	4.846365	-12.576433	34.566878	-19.431878	28.923375	150.381659	88.519581	28.257121	11.694014	196.214511	-157.105116	217.321952	108.715130	82.565541	19.856325	22.195311
3.683333	-4.857823	2.691522	89.730679	0.249016	0.892500	0.700293	-5.325502	-1.803016	3.658604	5.687431	0.099264	29.027703	-4.720985	0.000000	-0.617390	1.672329	-1.667823	13.502660	0.235666	34.935951	2.866243	0.000000	0.022360	-0.606248	0.996571	0.041524	-0.806310	1.058856	0.036735	-1.474031	1.058856	0.025555	-1.474031	0.871999	0.020763	-1.236261	0.809714	0.012776	-0.939078	0.747428	0.159713	-6.857996	5.542628	0.000000	0.000000	22.050317	5.619539	-12.110801	33.831213	-19.511964	28.329815	149.976594	88.420209	27.942438	11.184129	196.809973	-156.580799	216.164322	112.611119	83.083112	18.898300	20.636752
3.700000	-4.884863	2.555964	89.332584	0.249535	0.892475	0.699798	-5.143369	-1.817417	4.511496	5.708455	0.099631	28.839089	-5.379418	0.000000	-0.610323	1.722724	-1.909483	13.382424	0.233567	34.784092	2.777815	0.000000	0.023345	-0.628346	0.995529	0.043354	-0.835700	1.057750	0.038353	-1.527760	1.057750	0.026681	-1.527760	0.871088	0.021678	-1.281323	0.808867	0.013339	-0.973308	0.746647	0.166750	-7.107975	5.536834	0.000000	0.000000	22.548340	6.213068	-11.946710	32.910517	-19.663381	27.360634	149.541133	88.336355	27.411334	10.635013	197.818440	-156.108784	215.175749	116.769454	83.838188	17.872800	18.959790
3.716667	-4.913938	2.378687	88.870276	0.250172	0.892331	0.699353	-4.888377	-1.839973	5.278460	5.764547	0.100610	28.703210	-5.834070	0.000000	-0.557787	1.775862	-2.141653	13.268224	0.231574	34.629826	2.615479	0.000000	0.029880	-0.650345	1.003816	0.055491	-0.864959	1.066555	0.049091	-1.581249	1.066555	0.034150	-1.581249	0.878339	0.027747	-1.326183	0.815601	0.017074	-1.007384	0.752862	0.213433	-7.356831	5.582926	0.000000	0.000000	23.043886	6.680268	-11.708169	31.944676	-19.838344	26.254420	149.080662	88.262032	26.698440	10.198773	199.147975	-155.672672	214.263757	121.086235	84.814041	16.887078	17.137478
3.733333	-4.960658	2.160329	88.350656	0.250903	0.892060	0.698993	-4.540941	-1.900402	5.791604	5.892813	0.102849	28.677960	-5.871754	0.000000	-0.456116	1.847610	-2.364075	13.156904	0.229631	34.469610	2.375827	0.000000	0.042490	-0.671322	1.007889	0.078908	-0.892859	1.070882	0.069807	-1.632253	1.070882	0.048562	-1.632253	0.881902	0.039456	-1.368960	0.818909	0.024279	-1.039878	0.755916	0.303503	-7.594132	5.605574	0.000000	0.000000	23.516211	6.962370	-11.263947	31.057182	-19.968135	25.218376	148.568330	88.187766	26.004037	9.936581	200.739606	-155.206388	213.392998	125.481859	85.805774	16.030745	15.225545
3.750000	-4.994801	1.920279	87.793130	0.251649	0.891684	0.698719	-4.133094	-1.965219	6.069991	6.076237	0.106050	28.744463	-5.547504	0.000000	-0.319021	1.908220	-2.572920	13.060901	0.227956	34.333894	2.076353	0.000000	0.057909	-0.683885	0.997720	0.107542	-0.909567	1.060078	0.095138	-1.662798	1.060078	0.066184	-1.662798	0.873005	0.053774	-1.394579	0.810648	0.033089	-1.059338	0.748290	0.413636	-7.736246	5.549021	0.000000	0.000000	23.994925	7.173080	-10.283286	30.334546	-20.041111	24.464102	148.004628	88.152444	25.262148	9.838256	202.550217	-154.652763	212.588478	129.890058	86.647632	15.172216	13.390352
3.766667	-5.039866	1.657550	87.225647	0.252393	0.891207	0.698516	-3.666230	-2.055439	6.126176	6.317197	0.110256	28.909745	-4.915473	0.000000	-0.147147	1.981960	-2.756463	12.968827	0.226349	34.210971	1.715507	0.000000	0.076443	-0.690823	0.975021	0.141963	-0.918794	1.035959	0.125589	-1.679666	1.035959	0.087367	-1.679666	0.853143	0.070985	-1.408726	0.792204	0.043680	-1.070084	0.731265	0.546026	-7.814725	5.422772	0.000000	0.000000	24.467717	7.249307	-8.851322	29.774374	-20.036999	24.017473	147.424521	88.144224	24.608014	10.006505	204.648956	-153.957796	211.998132	134.167175	87.104126	14.328493	11.698954
3.783333	-5.089107	1.384878	86.672984	0.253114	0.890668	0.698363	-3.166321	-2.159559	5.987368	6.600554	0.115201	29.153841	-4.046952	0.000000	0.048071	2.059298	-2.904429	12.884816	0.224882	34.109803	1.319246	0.000000	0.096671	-0.692493	0.950782	0.179528	-0.921016	1.010206	0.158821	-1.683727	1.010206	0.110485	-1.683727	0.831934	0.089769	-1.412132	0.772511	0.055238	-1.072672	0.713087	0.690513	-7.833619	5.287966	0.000000	0.000000	24.908201	7.223356	-7.090510	29.316135	-19.973842	23.802084	146.867899	88.169921	24.077864	10.409601	207.094823	-153.166588	211.722158	138.120085	87.164597	13.633091	10.213901
3.800000	-5.136492	1.119831	86.156444	0.253774	0.890120	0.698287	-2.648782	-2.276154	5.580368	6.936283	0.121061	29.495399	-2.865494	0.000000	0.251171	2.137486	-2.992814	12.808238	0.223546	34.025117	0.866066	0.000000	0.116023	-0.689739	0.941348	0.215467	-0.917353	1.000183	0.190615	-1.677032	1.000183	0.132603	-1.677032	0.823680	0.107739	-1.406516	0.764846	0.066296	-1.068406	0.706011	0.828743	-7.802466	5.235498	0.000000	0.000000	25.304106	7.043748	-5.236979	28.870298	-19.901636	23.677634	146.368720	88.248671	23.644394	10.910500	209.953858	-152.361902	211.881034	141.521661	86.866959	13.117768	8.873805
3.816667	-5.175927	0.884272	85.703963	0.254273	0.889642	0.698322	-2.136198	-2.402579	4.863014	7.329708	0.127928	29.919893	-1.371579	0.000000	0.446670	2.215062	-2.995761	12.749742	0.222525	33.950141	0.364949	0.000000	0.132655	-0.682140	0.961021	0.246354	-0.907247	1.021085	0.217939	-1.658556	1.021085	0.151612	-1.658556	0.840893	0.123184	-1.391020	0.780830	0.075799	-1.056635	0.720766	0.947544	-7.716507	5.344911	0.000000	0.000000	25.582428	6.662238	-3.452517	28.365082	-19.886492	23.515787	145.946595	88.442444	23.300824	11.361305	213.195072	-151.710261	212.460538	144.153902	86.352068	12.749842	7.746040
3.833333	-5.227989	0.718081	85.338809	0.254704	0.889315	0.698445	-1.726866	-2.517432	4.491009	7.675946	0.133971	30.208671	-0.473842	0.000000	0.578955	2.298392	-2.976007	12.687017	0.221430	33.874581	-0.074323	0.000000	0.141103	-0.675332	1.010184	0.262043	-0.898192	1.073321	0.231819	-1.642002	1.073321	0.161267	-1.642002	0.883911	0.131029	-1.377137	0.820775	0.080626	-1.046089	0.757638	1.007887	-7.639491	5.618343	0.000000	0.000000	25.734501	6.204685	-1.879930	27.782717	-19.922729	23.388609	145.609344	88.872017	22.727131	11.710068	216.711403	-151.302534	213.334697	145.951260	85.854819	12.341695	7.053734
3.850000	-5.267801	0.639948	85.070624	0.254958	0.889195	0.698700	-1.419589	-2.621260	4.066004	8.014851	0.139886	30.473790	0.364604	0.000000	0.640310	2.374086	-2.875337	12.642715	0.220657	33.791610	-0.513595	0.000000	0.140144	-0.665585	1.090134	0.260261	-0.885227	1.158267	0.230242	-1.618302	1.158267	0.160170	-1.618302	0.953867	0.130138	-1.357260	0.885734	0.080078	-1.030990	0.817600	1.001034	-7.529225	6.062996	0.000000	0.000000	25.704588	5.629911	-0.588819	27.149474	-20.052399	23.297653	145.327615	89.478323	22.024240	11.920245	220.383252	-151.280018	214.359831	146.766484	85.325696	11.876792	6.805212
3.866667	-5.291734	0.655405	84.909106	0.254983	0.889287	0.699067	-1.220503	-2.710594	3.612273	8.348586	0.145710	30.712099	1.096206	0.000000	0.617532	2.440448	-2.697417	12.604497	0.219990	33.691182	-0.928381	0.000000	0.129390	-0.652574	1.187099	0.240289	-0.867924	1.261293	0.212574	-1.586669	1.261293	0.147879	-1.586669	1.038712	0.120151	-1.330729	0.964518	0.073933	-1.010837	0.890324	0.924217	-7.382049	6.602290	0.000000	0.000000	25.505241	5.017143	0.465797	26.554207	-20.280167	23.384096	145.079018	90.055055	21.046075	12.095224	224.065026	-151.659364	215.366197	146.597214	84.737519	11.297167	6.975183
3.883333	-5.294387	0.757291	84.857803	0.254762	0.889561	0.699477	-1.130995	-2.779468	3.146290	8.664925	0.151231	30.921040	1.703635	0.000000	0.517476	2.491954	-2.444437	12.579280	0.219550	33.581324	-1.304739	0.000000	0.109613	-0.636428	1.288096	0.203562	-0.846450	1.368602	0.180083	-1.547412	1.368602	0.125277	-1.547412	1.127084	0.101786	-1.297805	1.046578	0.062633	-0.985827	0.966072	0.782954	-7.199404	7.164002	0.000000	0.000000	25.178193	4.417210	1.294192	26.052016	-20.602903	23.705875	144.850233	90.428029	19.758085	12.389584	227.618002	-152.434477	216.193071	145.525183	84.069549	10.612100	7.516202
